<?xml version="1.0" encoding="utf-8"?>
<!-- Generator: Adobe Illustrator 18.0.0, SVG Export Plug-In . SVG Version: 6.00 Build 0) -->
<!DOCTYPE svg PUBLIC "-//W3C//DTD SVG 1.1//EN" "http://www.w3.org/Graphics/SVG/1.1/DTD/svg11.dtd">
<svg version="1.1" id="Ebene_1" xmlns="http://www.w3.org/2000/svg" xmlns:xlink="http://www.w3.org/1999/xlink" x="0px" y="0px"
	 viewBox="0 0 512 512" style="enable-background:new 0 0 512 512;" xml:space="preserve">
<path style="fill:#56AD89;" d="M86.4,16.9c-25.8,0-43.7,20.6-43.7,56v363.1c0,35.5,17.8,56.1,43.7,56.1c10.5,0,22.4-3.4,34.9-10.7
	l314.5-181.6c43.2-25,43.2-65.8,0-90.8L121.4,27.5C108.8,20.3,97,16.9,86.4,16.9L86.4,16.9z"/>
<path style="display:none;fill:#3E78B3;" d="M422.9,469H89.1C63.8,469,43,448.2,43,422.9V89.1C43,63.8,63.8,43,89.1,43h333.7
	c25.4,0,46.1,20.7,46.1,46.1v333.7C469,448.2,448.2,469,422.9,469z"/>
<circle style="display:none;fill:#CC4C33;" cx="256" cy="256" r="213"/>
</svg>
