<svg xmlns="http://www.w3.org/2000/svg" viewBox="0 0 4422 580"><defs><clipPath id="clip-path"><path fill="none" d="M68 34h512v512H68z"/></clipPath></defs><g id="Ebene_4" data-name="Ebene 4"><g class="cls-2"><g class="cls-2"><path d="M557 290a233 233 0 1 1-467 0 233 233 0 0 1 467 0" fill="#c3272d"/><circle cx="324" cy="290" r="233" stroke="#fff" stroke-miterlimit="10" stroke-width="38" fill="none"/><path d="M435 235h-82l22-83c2-10 6-19-4-19H268c-8 0-9 6-10 13l-21 154c-1 9 1 17 10 17h81l-29 125a15 15 0 0 0 28 11l113-194c6-11 6-24-5-24" fill="#fff"/></g></g><path d="M639 442V138h92l55 207 55-207h92v304h-57V202l-61 240h-59l-60-240v240zM1250 442h-67l-27-69h-121l-26 69h-65l119-304h65zm-113-120l-42-113-42 113zM1428 330l60 19q-14 50-45 74t-81 25q-61 0-100-42t-39-113q0-76 39-119t103-42q56 0 91 33 21 20 31 56l-61 15q-5-24-22-37t-42-14q-34 0-55 24t-21 79q0 58 21 82t54 25q24 0 42-16t25-49zM1507 442V138h130q48 0 71 8t35 29q13 21 13 48 0 34-20 57t-60 28q20 11 33 25t35 50l37 59h-74l-44-66q-24-36-32-45t-19-12q-10-4-31-4h-12v127zm62-176h45q44 0 55-3a33 33 0 0 0 18-13q6-9 6-23 0-15-8-25t-23-12l-45-1h-48zM1768 292q0-47 14-78a143 143 0 0 1 28-42q18-19 40-28 28-12 65-12 68 0 108 42t40 116q0 74-40 116t-107 42q-68 0-108-42t-40-114zm63-2q0 51 24 78t61 27q37 0 60-27t24-79q0-53-23-78t-61-26q-38 0-61 26t-24 79zM2147 442V138h129q49 0 71 8t36 29q13 21 13 48 0 34-20 57t-60 28q20 11 33 25t35 50l37 59h-74l-44-66q-24-36-33-45t-18-12q-10-4-31-4h-13v127zm61-176h46q44 0 55-3a33 33 0 0 0 17-13q7-9 7-23 0-15-8-25t-24-12l-45-1h-48zM2435 442V138h226v51h-164v68h153v51h-153v83h170v51zM2880 330l60 19q-14 50-46 74t-81 25q-61 0-100-42t-39-113q0-76 39-119t104-42q56 0 91 33 20 20 31 56l-61 15q-6-24-23-37t-41-14q-34 0-55 24t-21 79q0 58 20 82t54 25q25 0 43-16t25-49zM2950 292q0-47 14-78a143 143 0 0 1 28-42q18-19 40-28 28-12 65-12 68 0 108 42t41 116q0 74-41 116t-107 42q-68 0-108-42t-40-114zm63-2q0 51 24 78t61 27q37 0 60-27t24-79q0-53-23-78t-61-26q-38 0-61 26t-24 79zM3266 442V138h129q49 0 71 8t36 29q13 21 13 48 0 34-20 57t-60 28q20 11 32 25t35 50l38 59h-74l-44-66q-24-36-33-45t-18-12q-10-4-31-4h-13v127zm61-176h46q44 0 55-3a33 33 0 0 0 17-13q7-9 7-23 0-15-9-25t-23-12l-45-1h-48zM3557 138h112q38 0 58 5a102 102 0 0 1 46 28q19 21 29 50t10 72q0 37-9 65-12 33-33 54-16 15-43 24-20 6-54 6h-116zm61 51v202h46q26 0 37-3 15-4 25-13t16-29q7-20 7-56t-7-54q-6-19-17-30t-29-14q-12-3-50-3zM3830 442V138h226v51h-164v68h153v51h-153v83h170v51zM4080 442V138h130q49 0 71 8t35 29q14 21 14 48 0 34-20 57t-61 28q20 11 33 25t35 50l37 59h-73l-45-66q-23-36-32-45t-19-12q-9-4-31-4h-12v127zm62-176h46q44 0 55-3a33 33 0 0 0 17-13q6-9 6-23 0-15-8-25t-23-12l-45-1h-48z"/></g></svg>